<?xml version="1.0" encoding="UTF-8" standalone="no"?>
<svg xmlns:dc="http://purl.org/dc/elements/1.1/" xmlns:cc="http://creativecommons.org/ns#" xmlns:rdf="http://www.w3.org/1999/02/22-rdf-syntax-ns#" xmlns:svg="http://www.w3.org/2000/svg" xmlns="http://www.w3.org/2000/svg" xmlns:sodipodi="http://sodipodi.sourceforge.net/DTD/sodipodi-0.dtd" xmlns:inkscape="http://www.inkscape.org/namespaces/inkscape" width="100" height="100" id="svg3416" version="1.1" inkscape:version="0.48.5 r" sodipodi:docname="rubiks-cube.svg">
  <defs id="defs3418"/>
  <sodipodi:namedview id="base" pagecolor="#ffffff" bordercolor="#666666" borderopacity="1.0" inkscape:pageopacity="0.0" inkscape:pageshadow="2" inkscape:zoom="2.46" inkscape:cx="10.473095" inkscape:cy="16.853129" inkscape:document-units="px" inkscape:current-layer="layer1" showgrid="false" inkscape:window-width="1366" inkscape:window-height="713" inkscape:window-x="0" inkscape:window-y="26" inkscape:window-maximized="1" showguides="true" inkscape:guide-bbox="true">
    <sodipodi:guide orientation="1,0" position="425.71429,674.28571" id="guide2986"/>
    <sodipodi:guide orientation="1,0" position="162.85714,602.85714" id="guide2988"/>
    <sodipodi:guide orientation="0,1" position="272.85714,667.14286" id="guide2990"/>
    <sodipodi:guide orientation="0,1" position="690,760" id="guide2992"/>
    <sodipodi:guide orientation="1,0" position="644.28571,810" id="guide2994"/>
    <sodipodi:guide orientation="1,0" position="358.57143,702.85714" id="guide2996"/>
  </sodipodi:namedview>
  
  <g inkscape:label="Layer 1" inkscape:groupmode="layer" id="layer1" transform="translate(0,-952.36218)">
    <g style="fill:#9777a8;fill-opacity:1;stroke:#3b3c3d" id="g3886" transform="matrix(1.0780581,-0.50270457,0,1.5786794,35.656129,-559.95392)">
      <rect style="fill:#9777a8;fill-opacity:1;stroke:#3b3c3d" id="rect3888" width="10" height="10" x="14.394674" y="988.82416"/>
      <rect y="988.82416" x="26.516504" height="10" width="10" id="rect3890" style="fill:#9777a8;fill-opacity:1;stroke:#3b3c3d"/>
      <rect style="fill:#9777a8;fill-opacity:1;stroke:#3b3c3d" id="rect3892" width="10" height="10" x="38.638332" y="988.82416"/>
    </g>
    <g style="fill:#9777a8;fill-opacity:1;stroke:#3b3c3d" transform="matrix(1.0780581,-0.50270457,0,1.5786794,35.656129,-541.41546)" id="g3894">
      <rect y="988.82416" x="14.394674" height="10" width="10" id="rect3896" style="fill:#9777a8;fill-opacity:1;stroke:#3b3c3d"/>
      <rect style="fill:#9777a8;fill-opacity:1;stroke:#3b3c3d" id="rect3898" width="10" height="10" x="26.516504" y="988.82416"/>
      <rect y="988.82416" x="38.638332" height="10" width="10" id="rect3900" style="fill:#9777a8;fill-opacity:1;stroke:#3b3c3d"/>
    </g>
    <g style="fill:#9777a8;fill-opacity:1;stroke:#3b3c3d" id="g3902" transform="matrix(1.0780581,-0.50270457,0,1.5786794,35.656129,-522.87698)">
      <rect style="fill:#9777a8;fill-opacity:1;stroke:#3b3c3d" id="rect3904" width="10" height="10" x="14.394674" y="988.82416"/>
      <rect y="988.82416" x="26.516504" height="10" width="10" id="rect3906" style="fill:#9777a8;fill-opacity:1;stroke:#3b3c3d"/>
      <rect style="fill:#9777a8;fill-opacity:1;stroke:#3b3c3d" id="rect3908" width="10" height="10" x="38.638332" y="988.82416"/>
    </g>
    <g style="fill:#fcd116;stroke:#3b3c3d" id="g3186" transform="matrix(-1.0780581,-0.50270457,0,1.5786794,64.34387,-560.30766)">
      <rect y="988.82416" x="14.394674" height="10" width="10" id="rect3188" style="fill:#fcd116;fill-opacity:1;stroke:#3b3c3d"/>
      <rect style="fill:#fcd116;fill-opacity:1;stroke:#3b3c3d" id="rect3190" width="10" height="10" x="26.516504" y="988.82416"/>
      <rect y="988.82416" x="38.638332" height="10" width="10" id="rect3192" style="fill:#fcd116;fill-opacity:1;stroke:#3b3c3d"/>
    </g>
    <g style="fill:#fcd116;stroke:#3b3c3d" id="g3194" transform="matrix(-1.0780581,-0.50270457,0,1.5786794,64.415731,-541.76919)">
      <rect style="fill:#fcd116;fill-opacity:1;stroke:#3b3c3d" id="rect3196" width="10" height="10" x="14.394674" y="988.82416"/>
      <rect y="988.82416" x="26.516504" height="10" width="10" id="rect3198" style="fill:#fcd116;fill-opacity:1;stroke:#3b3c3d"/>
      <rect style="fill:#fcd116;fill-opacity:1;stroke:#3b3c3d" id="rect3200" width="10" height="10" x="38.638332" y="988.82416"/>
    </g>
    <g style="fill:#fcd116;stroke:#3b3c3d" transform="matrix(-1.0780581,-0.50270457,0,1.5786794,64.34387,-523.23072)" id="g3202">
      <rect y="988.82416" x="14.394674" height="10" width="10" id="rect3204" style="fill:#fcd116;fill-opacity:1;stroke:#3b3c3d"/>
      <rect style="fill:#fcd116;fill-opacity:1;stroke:#3b3c3d" id="rect3206" width="10" height="10" x="26.516504" y="988.82416"/>
      <rect y="988.82416" x="38.638332" height="10" width="10" id="rect3208" style="fill:#fcd116;fill-opacity:1;stroke:#3b3c3d"/>
    </g>
    <g id="g3080" transform="translate(0,0.81300812)">
      <rect transform="matrix(0.90559982,-0.4241332,0.90559982,0.4241332,0,0)" style="fill:#24e1ee;fill-opacity:1;stroke:#3b3c3d;stroke-width:0.96807623" id="rect3095" width="11.326621" height="12.326581" x="-1140.0601" y="1183.598"/>
      <rect y="1183.5554" x="-1126.3418" height="12.326581" width="11.326621" id="rect3097" style="fill:#24e1ee;fill-opacity:1;stroke:#3b3c3d;stroke-width:0.96807623" transform="matrix(0.90559982,-0.4241332,0.90559982,0.4241332,0,0)"/>
      <rect transform="matrix(0.90559982,-0.4241332,0.90559982,0.4241332,0,0)" style="fill:#24e1ee;fill-opacity:1;stroke:#3b3c3d;stroke-width:0.96807623" id="rect3099" width="11.326621" height="12.326581" x="-1112.9719" y="1183.639"/>
    </g>
    <g id="g3085" transform="translate(0.2196312,0.91450196)">
      <rect y="1169.2074" x="-1140.2111" height="12.326581" width="11.326621" id="rect3101" style="fill:#24e1ee;fill-opacity:1;stroke:#3b3c3d;stroke-width:0.96807623" transform="matrix(0.90559982,-0.4241332,0.90559982,0.4241332,0,0)"/>
      <rect transform="matrix(0.90559982,-0.4241332,0.90559982,0.4241332,0,0)" style="fill:#24e1ee;fill-opacity:1;stroke:#3b3c3d;stroke-width:0.96807623" id="rect3103" width="11.326621" height="12.326581" x="-1126.7859" y="1169.3424"/>
      <rect y="1169.3108" x="-1113.5271" height="12.326581" width="11.326621" id="rect3105" style="fill:#24e1ee;fill-opacity:1;stroke:#3b3c3d;stroke-width:0.96807623" transform="matrix(0.90559982,-0.4241332,0.90559982,0.4241332,0,0)"/>
    </g>
    <g id="g3090" transform="translate(0,0.81300812)">
      <rect transform="matrix(0.90559982,-0.4241332,0.90559982,0.4241332,0,0)" style="fill:#24e1ee;fill-opacity:1;stroke:#3b3c3d;stroke-width:0.96807623" id="rect3107" width="11.326621" height="12.326581" x="-1140.3311" y="1155.3223"/>
      <rect y="1155.235" x="-1127.1281" height="12.326581" width="11.326621" id="rect3109" style="fill:#24e1ee;fill-opacity:1;stroke:#3b3c3d;stroke-width:0.96807623" transform="matrix(0.90559982,-0.4241332,0.90559982,0.4241332,0,0)"/>
      <rect transform="matrix(0.90559982,-0.4241332,0.90559982,0.4241332,0,0)" style="fill:#24e1ee;fill-opacity:1;stroke:#3b3c3d;stroke-width:0.96807623" id="rect3111" width="11.326621" height="12.326581" x="-1114.1068" y="1155.4407"/>
    </g>
  </g>

	<metadata>
		<rdf:RDF xmlns:rdf="http://www.w3.org/1999/02/22-rdf-syntax-ns#" xmlns:rdfs="http://www.w3.org/2000/01/rdf-schema#" xmlns:dc="http://purl.org/dc/elements/1.1/">
			<rdf:Description about="https://iconscout.com/legal#licenses" dc:title="rubiks-cube" dc:description="rubiks-cube" dc:publisher="Iconscout" dc:date="2017-05-19" dc:format="image/svg+xml" dc:language="en">
				<dc:creator>
					<rdf:Bag>
						<rdf:li>Vignesh Oviyan</rdf:li>
					</rdf:Bag>
				</dc:creator>
			</rdf:Description>
		</rdf:RDF>
    </metadata></svg>
