<?xml version="1.0" encoding="UTF-8"?><svg xmlns="http://www.w3.org/2000/svg" xmlns:xlink="http://www.w3.org/1999/xlink" version="1.1" id="Layer_1" x="0px" y="0px" viewBox="0 0 48 48" xml:space="preserve"><circle cx="24" cy="26" r="19" fill="#DD9F05"/><circle cx="24" cy="26" r="17" fill="#01579B"/><path d="M34 32c.917 2.917-2.167 5.045-4.583 5.045-1.322 0-2.958-.504-3.417-2.045a34.526 34.526 0 0 0-4 2.518V39h12.915a17.01 17.01 0 0 0 4.671-6.22C38.731 32.46 36.988 32 34 32z" fill="#0277BD"/><path d="M36.563 14.571a22.086 22.086 0 0 0-8.052 4.386C27.629 21.634 25.517 24.582 22 27v7s2.796-5.109 9.417-6.667a56.387 56.387 0 0 1 9.581-1.386 16.906 16.906 0 0 0-4.435-11.376z" fill="#0277BD"/><path d="M34.919 12.993a17.056 17.056 0 0 0-3.089-2.073c-1.113.515-2.506 1.223-3.83 2.08.629.787.957 1.84.985 3.04a23.948 23.948 0 0 1 5.934-3.047z" fill="#0091EA"/><circle cx="24" cy="26" r="15" fill="#0277BD"/><path d="M29.557 12.076c-.517.286-1.041.59-1.557.924.629.787.957 1.84.985 3.04a24.296 24.296 0 0 1 3.804-2.178 14.934 14.934 0 0 0-3.232-1.786z" fill="#00B0FF"/><path d="M39 26c0-4.19-1.721-7.974-4.491-10.695-2.875 1.18-4.954 2.746-5.999 3.652-.881 2.677-2.993 5.625-6.51 8.043v7s2.796-5.109 9.417-6.667a56.899 56.899 0 0 1 7.578-1.234c0-.033.005-.065.005-.099z" fill="#0091EA"/><path d="M39.473 37H33v2h4.83a18.982 18.982 0 0 0 1.643-2z" fill="#B3831D"/><path d="M22 7.107v37.786c.658.069 1.324.107 2 .107V7c-.676 0-1.342.038-2 .107z" fill="#B3831D"/><path d="M11 39.83a19.107 19.107 0 0 0 2 1.643V10.527a19.107 19.107 0 0 0-2 1.643v27.66z" fill="#B3831D"/><path d="M11 36.943c.609.723 1.28 1.392 2 2.005V13.051a17.136 17.136 0 0 0-2 2.005v21.887z" fill="#01579B"/><path fill="#FFC107" d="M10 3h12v36h20l-5 6H10l3-4V7z"/><path d="M24 37V9c-.678 0-1.343.051-2 .128V39h12.943a17.136 17.136 0 0 0 2.005-2H24z" fill="#01579B"/><path d="M24 25.395A17.09 17.09 0 0 1 22 27v7s.636-1.149 2-2.521v-6.084z" fill="#0277BD"/><path fill="#E8A30A" d="M22 39V3h-2v38h20.333L42 39z"/><path d="M34 32c.917 2.917-2.167 5.045-4.583 5.045-1.322 0-2.958-.504-3.417-2.045a34.526 34.526 0 0 0-4 2.518V39h9.462a15.04 15.04 0 0 0 6.15-6.727C36.693 32.117 35.505 32 34 32z" fill="#0091EA"/><path d="M36.349 37.65c.196-.206.366-.435.551-.65h-6.89c-.2.027-.399.045-.593.045-.209 0-.426-.018-.644-.045H24v-.836a36.461 36.461 0 0 0-2 1.354V39h12.915c.497-.418.971-.863 1.418-1.333l.016-.017z" fill="#0277BD"/><metadata><rdf:RDF xmlns:rdf="http://www.w3.org/1999/02/22-rdf-syntax-ns#" xmlns:rdfs="http://www.w3.org/2000/01/rdf-schema#" xmlns:dc="http://purl.org/dc/elements/1.1/"><rdf:Description about="https://iconscout.com/legal#licenses" dc:title="league,of,legends" dc:description="league,of,legends" dc:publisher="Iconscout" dc:date="2017-12-15" dc:format="image/svg+xml" dc:language="en"><dc:creator><rdf:Bag><rdf:li>Icons8</rdf:li></rdf:Bag></dc:creator></rdf:Description></rdf:RDF></metadata></svg>